<svg width="14" height="133" viewBox="0 0 14 133" fill="none" xmlns="http://www.w3.org/2000/svg">
<path d="M7 0C3.129 0 0 3.129 0 7C0 10.871 3.129 14 7 14C10.871 14 14 10.871 14 7C14 3.129 10.871 0 7 0Z" fill="#4E80FF"/>
<path d="M7.07362 4.42107C5.60671 4.42107 4.42099 5.6068 4.42099 7.07371C4.42099 8.54061 5.60671 9.72634 7.07362 9.72634C8.54052 9.72634 9.72625 8.54061 9.72625 7.07371C9.72625 5.6068 8.54052 4.42107 7.07362 4.42107Z" fill="white"/>
<path d="M7 21L7 24.3514" stroke="#424E60" stroke-width="2.51351" stroke-linecap="round"/>
<path d="M7 29.3513L7 32.7027" stroke="#424E60" stroke-width="2.51351" stroke-linecap="round"/>
<path d="M7 37.7028L7 41.0541" stroke="#424E60" stroke-width="2.51351" stroke-linecap="round"/>
<path d="M7 46.0541L7 49.4054" stroke="#424E60" stroke-width="2.51351" stroke-linecap="round"/>
<path d="M7 70.4054C8.38447 70.4054 9.73784 69.9949 10.889 69.2257C12.0401 68.4565 12.9373 67.3633 13.4672 66.0842C13.997 64.8051 14.1356 63.3976 13.8655 62.0398C13.5954 60.6819 12.9287 59.4346 11.9497 58.4557C10.9708 57.4767 9.7235 56.81 8.36563 56.5399C7.00776 56.2698 5.6003 56.4084 4.32121 56.9382C3.04213 57.4681 1.94888 58.3653 1.17971 59.5164C0.410543 60.6676 0 62.0209 0 63.4054C0 65.2619 0.737498 67.0424 2.05025 68.3551C2.70026 69.0052 3.47194 69.5208 4.32121 69.8726C5.17049 70.2243 6.08075 70.4054 7 70.4054ZM4.417 62.1034L6.517 60.1014C6.54737 60.0718 6.58297 60.048 6.622 60.0314C6.65493 60.0017 6.69285 59.978 6.734 59.9614C6.81779 59.9244 6.90839 59.9052 7 59.9052C7.09161 59.9052 7.18221 59.9244 7.266 59.9614C7.35192 59.9947 7.43043 60.0447 7.497 60.1084L9.597 62.2084C9.72881 62.3402 9.80286 62.519 9.80286 62.7054C9.80286 62.8918 9.72881 63.0706 9.597 63.2024C9.46519 63.3342 9.28641 63.4083 9.1 63.4083C8.91359 63.4083 8.73481 63.3342 8.603 63.2024L7.7 62.2924V66.2054C7.7 66.391 7.62625 66.5691 7.49497 66.7004C7.3637 66.8316 7.18565 66.9054 7 66.9054C6.81435 66.9054 6.6363 66.8316 6.50502 66.7004C6.37375 66.5691 6.3 66.391 6.3 66.2054V62.2434L5.383 63.1184C5.2484 63.2465 5.06843 63.3159 4.88267 63.3113C4.69692 63.3067 4.5206 63.2285 4.3925 63.0939C4.2644 62.9593 4.19501 62.7793 4.19961 62.5936C4.2042 62.4078 4.2824 62.2315 4.417 62.1034Z" fill="#9CD047"/>
<path d="M7 77.4054L7 80.7567" stroke="#424E60" stroke-width="2.51351" stroke-linecap="round"/>
<path d="M7 85.7567L7 89.1081" stroke="#424E60" stroke-width="2.51351" stroke-linecap="round"/>
<path d="M7 94.1082L7 97.4595" stroke="#424E60" stroke-width="2.51351" stroke-linecap="round"/>
<path d="M7 102.459L7 105.811" stroke="#424E60" stroke-width="2.51351" stroke-linecap="round"/>
<path d="M7.00003 117.033C5.27959 117.033 3.88892 118.424 3.88892 120.144C3.88892 121.865 5.27959 123.255 7.00003 123.255C8.72048 123.255 10.1111 121.865 10.1111 120.144C10.1111 118.424 8.72048 117.033 7.00003 117.033Z" fill="white"/>
<path d="M7 112.811C3.13 112.811 0 115.941 0 119.811C0 121.551 0.5 123.181 1.41 124.651C2.36 126.191 3.61 127.511 4.57 129.051C5.04 129.801 5.38 130.501 5.74 131.311C6 131.861 6.21 132.811 7 132.811C7.79 132.811 8 131.861 8.25 131.311C8.62 130.501 8.95 129.801 9.42 129.051C10.38 127.521 11.63 126.201 12.58 124.651C13.5 123.181 14 121.551 14 119.811C14 115.941 10.87 112.811 7 112.811ZM7 122.561C5.62 122.561 4.5 121.441 4.5 120.061C4.5 118.681 5.62 117.561 7 117.561C8.38 117.561 9.5 118.681 9.5 120.061C9.5 121.441 8.38 122.561 7 122.561Z" fill="#DD5E5E"/>
</svg>
