<?xml version="1.0" encoding="UTF-8"?>
<svg id="Layer_4" data-name="Layer 4" xmlns="http://www.w3.org/2000/svg" viewBox="0 0 2140.25 540.57" width="195px">
  <defs>
    <style>
      .cls-1 {
        fill: #2d7aea;
      }

      .cls-2 {
        fill: #fbb03b;
      }
    </style>
  </defs>
  <path class="cls-1" d="m990.29,420.63l-99.95-375.2h106.61l46.13,214.51c1.19,5.47,2.22,11.66,3.08,18.58.85,6.92,1.62,14.91,2.31,23.96,3.24-9.4,6.36-17.9,9.35-25.5s5.42-13.62,7.3-18.07l99.44-213.48h111.74l-198.88,375.2h-87.14.01Z"/>
  <path class="cls-1" d="m1228.64,426.27l40.75-258.85h92.01l-41.01,258.85h-91.75Zm47.67-335.99c0-13.33,4.74-24.77,14.22-34.34s20.97-14.35,34.47-14.35c14.18,0,25.97,4.61,35.37,13.84s14.1,20.85,14.1,34.85-4.79,25.54-14.35,35.11c-9.57,9.57-21.27,14.35-35.11,14.35s-24.99-4.83-34.47-14.48c-9.48-9.65-14.22-21.31-14.22-34.98h-.01Z"/>
  <path class="cls-1" d="m1624.01,340.16c0-6.83.59-15.42,1.79-25.76,1.19-10.34,3.59-26.27,7.18-47.8l15.89-99.18h-64.92l-5.89,37.42c-11.45-15.55-24.26-27.04-38.44-34.47-14.18-7.43-30.24-11.15-48.18-11.15-38.62,0-70.82,14.78-96.62,44.34s-38.7,66.72-38.7,111.48c0,35.71,9.52,64.76,28.58,87.14,19.05,22.38,43.44,33.57,73.17,33.57,17.6,0,34.04-3.72,49.33-11.15,15.29-7.43,29.17-18.41,41.65-32.93l-4.36,34.6h85.09l6.3-39.75c-7.84-13.27-11.85-28.69-11.85-46.36h-.02Zm-75.56-.13c-12.05,14.1-27.13,21.14-45.23,21.14-16.58,0-29.9-5.04-39.98-15.12s-15.12-23.41-15.12-39.98c0-21.02,6.02-38.44,18.07-52.28,12.05-13.84,27.29-20.76,45.75-20.76,16.23,0,29.39,5,39.47,14.99,10.08,10,15.12,23.02,15.12,39.08,0,21.19-6.02,38.83-18.07,52.92h-.01Z"/>
  <path class="cls-1" d="m1673.72,167.43h90.72l-16.91,107.13c-2.05,14.18-3.68,26.01-4.87,35.5-1.2,9.48-1.79,15.68-1.79,18.58,0,12.3,2.95,21.7,8.84,28.19s14.48,9.74,25.76,9.74c26.31,0,44.08-29.81,53.31-89.44.51-3.24.94-5.72,1.28-7.43l16.15-102.26h90.98l-18.45,117.12-.77,5.38c-9.06,55.53-23.15,92.61-42.29,111.23-12.13,11.62-26.96,20.37-44.47,26.27-17.51,5.89-37.29,8.84-59.33,8.84-38.1,0-68.13-8.63-90.08-25.88-21.96-17.26-32.93-40.66-32.93-70.22,0-6.83.59-15.42,1.79-25.76,1.19-10.34,3.59-26.27,7.18-47.8l15.89-99.18h-.01Z"/>
  <path class="cls-1" d="m1919.85,413.2l-73.55-245.78h94.57l22.55,111.74c.34,1.54.85,3.76,1.54,6.66,3.24,15.04,5.04,27.85,5.38,38.44,1.88-6.66,4.31-13.8,7.3-21.4,2.99-7.6,6.62-15.85,10.89-24.73l53.56-110.71h98.16l-200.93,373.15h-95.59l76.12-127.37Z"/>
  <path class="cls-2" d="m0,330.54c2.62-.78,107.13-29.35,156.38-40.55,22.24-5.06,57.04-13.06,103.38-21.29,83.56-14.84,137.93-19.91,192.75,4.52,13.45,5.99,28.5,15.4,58.59,34.2,45.08,28.17,52.29,37.65,78.48,49.84,16.49,7.68,45.28,21.12,82.02,24.18,61.4,5.11,107.94-18.32,126.37-28.95-.73-19.88-1-39.64-1.4-59.39h.01c-2.48,1.69-27.92,13.76-44.21,20.68-76.64,32.57-154.11,7.95-154.11,7.95-18.89-6-36.37-16.61-71.34-37.82-34.65-21.02-62.03-41.83-108.46-51.79-.69-.15-4.66-1.08-9.47-1.83-22.24-3.45-62.87-3.64-164.34,21.7-55.29,13.81-97.03,27.3-129.09,37.73"/>
  <path class="cls-2" d="m797.97,394.44c-32.67,13.91-95.43,34.44-160.47,18.89-28.55-6.83-54.28-19.45-60.77-22.71-37.09-18.63-44.25-31.91-80.74-54.57-21.43-13.31-49.74-30.89-88.55-39.84-33.89-7.81-60.4-5.49-111.88-.99-33.68,2.94-61.37,7.55-80.5,11.24C17.96,351.04,0,356.99,0,356.99c0,0,34.04-4.21,136.49-20.95,25.27-4.13,100.91-16.24,192.99-19.39,32.58-1.11,67.26-1.11,105.28,15.41,17.2,7.48,30.34,16.27,52.76,31.29,41.46,27.76,41.23,34.35,73.44,55.68,24.95,16.52,54.67,35.81,96.64,44.21,26.6,5.32,49.28,4.51,64.23,2.98,32.75-1.22,60.29-17.11,69.99-41.36,2.26-5.65,5.67-17.04,6.16-30.42h-.01Z"/>
  <path class="cls-2" d="m548.09,463.31c-19.78-19.83-37.5-35.57-51.3-47.19-33.55-28.27-50.76-38.01-57.67-41.76,0,0-15.29-8.3-31.68-14.58-43.77-16.77-100.73-14.41-183.47-6.1-42.13,4.23-81.44,8.25-137.27,17.3-44.62,7.23-59.61,10.06-86.7,15.96,54.73-5.98,78.25-5.28,111.82-7.94,20.3-1.61,78.64-6.1,153.44-7.62,42.51-.87,67.91-.32,99.77,5.43,32.07,5.79,56.55,14.3,68.95,18.99,27.89,10.55,70,30.25,114.11,67.51h0Z"/>
  <path class="cls-2" d="m245.86,119.66c28.06-21.03,78.46-59.23,154.01-89.28C473.18,1.22,518.39-.15,530.37.31c43.09,1.68,219.52-24.83,251.38,181.32.47,3.03,15.52,68.31,3.84,74.84-60.75,33.98-124.3,38.5-190.28,17.96-6.92-2.15-9.93-6.09-11.23-13.06-5.48-29.31-11.22-58.58-19.65-87.23-11.89-40.43-26.27-79.72-52.52-113.55,0,0,9.7,21.91,19.7,46.49,17.54,43.08,25.51,88.5,32.32,134.15.88,5.88,4.78,14.32-.15,17.59-5.56,3.68-12.21-2.96-17.56-6.27-24.82-15.35-49.93-30.04-76.55-42.16-28.6-13.02-57.93-21.33-89.79-17.64-34.9,4.05-69.39,10.39-103.45,18.84C181.93,235.03,8.99,296.48,0,299.44c116.11-78.7,187.58-136.11,245.86-179.78h0Z"/>
</svg>