<?xml version="1.0" encoding="UTF-8"?>
<svg id="Camel_Code_Black" data-name="Camel Code Black" xmlns="http://www.w3.org/2000/svg" viewBox="0 0 420.89 136.05">
  <defs>
<style>svg{fill:#949aa1}</style>
  </defs>
  <g id="Letras">
    <g>
      <path class="cls-1" d="m255.4,63.26c-6.13,0-11.41-2.5-15.84-7.51-4.43-5-6.65-10.75-6.65-17.23,0-6.83,2.04-12.46,6.12-16.87,4.08-4.41,9.36-6.61,15.84-6.61,5.07,0,9.48,1.29,13.23,3.87,3.75,2.58,5.62,5.46,5.62,8.63,0,1.32-.42,2.39-1.26,3.21-.84.82-1.98,1.22-3.44,1.22-1.32,0-2.49-.44-3.51-1.32-1.01-.88-1.9-1.95-2.65-3.21-.75-1.26-1.53-2.52-2.35-3.8-.82-1.28-1.89-2.36-3.21-3.24-1.32-.88-2.84-1.32-4.56-1.32-2.78,0-5.16,1.25-7.14,3.74s-2.98,5.74-2.98,9.76c0,6.31,1.58,11.51,4.73,15.61,3.15,4.1,6.82,6.15,11.01,6.15,5.2,0,9.37-2.78,12.5-8.33.53-.75,1.21-1,2.05-.76.84.24,1.21.85,1.12,1.82-.4,4.54-2.21,8.38-5.42,11.51-3.22,3.13-7.63,4.7-13.23,4.7Z"/>
      <path class="cls-1" d="m307.59,55.98c.13,1.01.39,1.83.76,2.45.37.62.76,1,1.16,1.16.4.16.75.34,1.06.56.31.22.46.53.46.93,0,1.28-2.12,1.92-6.35,1.92-1.94,0-3.36-.25-4.27-.76-.9-.51-1.44-1.44-1.62-2.81-1.72,2.56-4.65,3.84-8.8,3.84-3.7,0-6.7-.86-9-2.58-2.29-1.72-3.44-4.19-3.44-7.41-.04-3.18,1.08-5.64,3.37-7.41,2.29-1.76,5.16-2.65,8.6-2.65,2.91,0,5.31.66,7.21,1.98l-.07-.79c-.44-4.19-1.06-7.14-1.85-8.86-.79-1.72-2.14-2.58-4.04-2.58-1.19,0-2.16.44-2.91,1.32-.75.88-1.28,1.85-1.59,2.91-.31,1.06-.82,2.03-1.52,2.91-.71.88-1.61,1.32-2.71,1.32-1.19,0-2.15-.34-2.88-1.03-.73-.68-1.09-1.58-1.09-2.68,0-2.29,1.22-4.12,3.67-5.49,2.45-1.37,5.46-2.05,9.03-2.05,4.28,0,7.78,1.21,10.52,3.64,2.73,2.43,4.34,5.73,4.83,9.92l1.45,12.24Zm-14.68,4.37c1.46,0,2.62-.61,3.51-1.82.88-1.21,1.28-2.59,1.19-4.13l-.2-2.32c-.18-1.9-.74-3.35-1.69-4.37-.95-1.01-2.13-1.52-3.54-1.52s-2.57.51-3.47,1.52c-.9,1.02-1.36,2.36-1.36,4.04,0,2.38.52,4.41,1.55,6.09,1.04,1.68,2.37,2.51,4,2.51Z"/>
      <path class="cls-1" d="m368.04,56.18c.09,1.06.51,2.05,1.26,2.98.75.93,1.12,1.63,1.12,2.12v.26c0,.75-.49,1.12-1.46,1.12h-11.44c-1.02,0-1.52-.37-1.52-1.12v-.26c0-.44.41-1.12,1.22-2.05.82-.93,1.18-1.92,1.09-2.98l-.66-12.1c-.18-3.66-.73-6.27-1.65-7.84-.93-1.56-2.29-2.35-4.1-2.35-1.54,0-2.8.64-3.77,1.92-.97,1.28-1.5,2.93-1.59,4.96.18.88.26,1.94.26,3.17v12.24c0,1.06.39,2.05,1.16,2.98.77.93,1.16,1.61,1.16,2.05v.26c0,.75-.49,1.12-1.46,1.12h-11.44c-1.02,0-1.52-.37-1.52-1.12v-.26c0-.44.4-1.12,1.19-2.05.79-.93,1.19-1.92,1.19-2.98v-12.9c0-3-.53-5.31-1.59-6.95-1.06-1.63-2.45-2.45-4.17-2.45s-3.15.68-4.17,2.05c-1.02,1.37-1.52,3.13-1.52,5.29v14.95c0,1.06.47,2.05,1.42,2.98.95.93,1.42,1.61,1.42,2.05v.26c0,.75-.51,1.12-1.52,1.12h-12.3c-1.02,0-1.52-.37-1.52-1.12v-.26c0-.44.47-1.12,1.42-2.05.95-.93,1.42-1.92,1.42-2.98v-15.41c0-.84-.26-1.54-.79-2.12-.53-.57-1.07-1.07-1.62-1.49-.55-.42-.83-.85-.83-1.29v-.26c0-.48.46-.95,1.39-1.39l8.33-3.84c.75-.35,1.32-.39,1.72-.1.4.29.6.78.6,1.49v3.11c2.07-3.18,5.11-4.76,9.13-4.76,5.03,0,8.69,1.98,10.98,5.95.88-1.85,2.22-3.31,4-4.37,1.79-1.06,3.8-1.59,6.05-1.59,3.35,0,6.15,1.11,8.4,3.34,2.25,2.23,3.55,5.85,3.9,10.88l.79,11.77Z"/>
      <path class="cls-1" d="m400.39,52.54c.4-.53.88-.71,1.46-.53.57.18.84.6.79,1.26-.22,2.29-1.54,4.53-3.97,6.71-2.43,2.18-5.58,3.27-9.46,3.27-4.67,0-8.51-1.54-11.51-4.63-3-3.09-4.5-7.14-4.5-12.17,0-4.72,1.56-8.61,4.7-11.67,3.13-3.06,6.9-4.6,11.31-4.6,4.01,0,7.1.95,9.26,2.84,2.16,1.9,3.24,4.08,3.24,6.55,0,2.03-.97,3.48-2.91,4.37l-14.68,6.68c1.81,3.84,4.72,5.75,8.73,5.75,1.68,0,3.19-.36,4.53-1.09,1.34-.73,2.35-1.64,3.01-2.74Zm-12.37-19.45c-1.72,0-3.09.83-4.1,2.48-1.01,1.65-1.52,3.76-1.52,6.32,0,2.16.22,4.06.66,5.69l8.53-4.3c1.15-.57,1.72-1.61,1.72-3.11s-.49-3.05-1.46-4.66c-.97-1.61-2.25-2.41-3.84-2.41Z"/>
      <path class="cls-1" d="m407.2,62.6c-1.02,0-1.52-.37-1.52-1.12v-.26c0-.44.43-1.12,1.29-2.05.86-.93,1.29-1.9,1.29-2.91V23.7c0-1.15-.43-2.18-1.29-3.11-.86-.93-1.29-1.56-1.29-1.92v-.26c0-.53.44-.97,1.32-1.32l8.33-4.1c.88-.35,1.55-.4,2.02-.13.46.26.69.71.69,1.32v42.07c0,1.01.47,1.98,1.42,2.91.95.93,1.42,1.61,1.42,2.05v.26c0,.75-.51,1.12-1.52,1.12h-12.17Z"/>
    </g>
    <g>
      <path class="cls-1" d="m255.4,123.37c-6.13,0-11.41-2.5-15.84-7.51-4.43-5-6.65-10.75-6.65-17.23,0-6.83,2.04-12.46,6.12-16.87,4.08-4.41,9.36-6.61,15.84-6.61,5.07,0,9.48,1.29,13.23,3.87,3.75,2.58,5.62,5.46,5.62,8.63,0,1.32-.42,2.39-1.26,3.21-.84.82-1.98,1.22-3.44,1.22-1.32,0-2.49-.44-3.51-1.32-1.01-.88-1.9-1.95-2.65-3.21-.75-1.26-1.53-2.52-2.35-3.8-.82-1.28-1.89-2.36-3.21-3.24-1.32-.88-2.84-1.32-4.56-1.32-2.78,0-5.16,1.25-7.14,3.74s-2.98,5.74-2.98,9.76c0,6.31,1.58,11.51,4.73,15.61,3.15,4.1,6.82,6.15,11.01,6.15,5.2,0,9.37-2.78,12.5-8.33.53-.75,1.21-1,2.05-.76.84.24,1.21.85,1.12,1.82-.4,4.54-2.21,8.38-5.42,11.51-3.22,3.13-7.63,4.7-13.23,4.7Z"/>
      <path class="cls-1" d="m295.42,123.37c-5.25,0-9.58-1.62-13-4.86-3.42-3.24-5.13-7.2-5.13-11.87s1.68-8.62,5.03-11.71c3.35-3.09,7.39-4.63,12.1-4.63,5.07,0,9.3,1.6,12.7,4.8,3.4,3.2,5.09,7.15,5.09,11.87s-1.6,8.63-4.8,11.74c-3.2,3.11-7.2,4.66-12.01,4.66Zm1.19-2.91c1.81,0,3.21-.84,4.2-2.51.99-1.68,1.49-4.03,1.49-7.08,0-2.51-.36-5.1-1.09-7.77-.73-2.67-1.82-4.98-3.27-6.95-1.46-1.96-3.07-2.94-4.83-2.94-4.06,0-6.09,3.22-6.09,9.66,0,2.38.36,4.89,1.09,7.54.73,2.65,1.85,4.98,3.37,7.01,1.52,2.03,3.23,3.04,5.13,3.04Z"/>
      <path class="cls-1" d="m348.4,116.35c0,1.01.44,2,1.32,2.94.88.95,1.32,1.64,1.32,2.08v.2c0,.75-.44,1.12-1.32,1.12h-8.2c-1.02,0-1.52-.48-1.52-1.46l-.13-1.46c-2.03,2.38-4.89,3.57-8.6,3.57-4.28,0-7.94-1.49-10.98-4.46-3.04-2.98-4.56-7.02-4.56-12.14,0-4.81,1.52-8.75,4.56-11.84,3.04-3.09,6.72-4.63,11.05-4.63,3.09,0,5.67.86,7.74,2.58v-10.58c0-.88-.28-1.61-.83-2.18-.55-.57-1.1-1.06-1.65-1.46-.55-.4-.83-.82-.83-1.26v-.2c0-.75.46-1.26,1.39-1.52l8.66-2.65c1.72-.57,2.58-.13,2.58,1.32v42Zm-14.95,4.17c1.5,0,2.81-.63,3.94-1.89,1.12-1.26,1.69-2.99,1.69-5.19v-11.64c0-2.16-.73-4.14-2.18-5.95-1.46-1.81-3.13-2.71-5.03-2.71-2.03,0-3.64.85-4.83,2.55-1.19,1.7-1.81,4.09-1.85,7.18-.09,2.51.17,5.09.76,7.74s1.56,4.95,2.91,6.91c1.34,1.96,2.88,2.97,4.6,3.01Z"/>
      <path class="cls-1" d="m381.47,112.65c.4-.53.88-.71,1.46-.53.57.18.84.6.79,1.26-.22,2.29-1.54,4.53-3.97,6.71-2.43,2.18-5.58,3.27-9.46,3.27-4.67,0-8.51-1.54-11.51-4.63-3-3.09-4.5-7.14-4.5-12.17,0-4.72,1.56-8.61,4.7-11.67,3.13-3.06,6.9-4.6,11.31-4.6,4.01,0,7.1.95,9.26,2.84,2.16,1.9,3.24,4.08,3.24,6.55,0,2.03-.97,3.48-2.91,4.37l-14.68,6.68c1.81,3.84,4.72,5.75,8.73,5.75,1.68,0,3.19-.36,4.53-1.09,1.34-.73,2.35-1.64,3.01-2.74Zm-12.37-19.45c-1.72,0-3.09.83-4.1,2.48-1.01,1.65-1.52,3.76-1.52,6.32,0,2.16.22,4.06.66,5.69l8.53-4.3c1.15-.57,1.72-1.61,1.72-3.11s-.49-3.05-1.46-4.66c-.97-1.61-2.25-2.41-3.84-2.41Z"/>
    </g>
  </g>
  <path id="Logo" class="cls-1" d="m140.83,0h-10.8l-17.08,35.29h25.66c18.08,0,32.74,14.66,32.74,32.74s-14.66,32.74-32.74,32.74h-68.34c-18.08,0-32.74-14.66-32.74-32.74s14.66-32.74,32.74-32.74h25.66L78.83,0h-10.8C30.46,0,0,30.46,0,68.03h0c0,36.29,28.42,65.94,64.21,67.92l-.05.11h80.53l-.05-.11c35.8-1.98,64.21-31.63,64.21-67.92h0C208.85,30.46,178.4,0,140.83,0Z"/>
</svg>