<svg width="15" height="61" viewBox="0 0 15 61" fill="none" xmlns="http://www.w3.org/2000/svg">
<path d="M7.11699 0.418213C3.18129 0.418213 0 3.56704 0 7.46258C0 11.3581 3.18129 14.5069 7.11699 14.5069C11.0527 14.5069 14.234 11.3581 14.234 7.46258C14.234 3.56704 11.0527 0.418213 7.11699 0.418213Z" fill="#4E80FF"/>
<path d="M7.19184 4.86731C5.70042 4.86731 4.49487 6.06055 4.49487 7.53675C4.49487 9.01296 5.70042 10.2062 7.19184 10.2062C8.68326 10.2062 9.8888 9.01296 9.8888 7.53675C9.8888 6.06055 8.68326 4.86731 7.19184 4.86731Z" fill="white"/>
<path d="M7.11719 17.507L7.11719 20.8583" stroke="#424E60" stroke-width="2.51351" stroke-linecap="round"/>
<path d="M7.11719 25.8583L7.11719 29.2096" stroke="#424E60" stroke-width="2.51351" stroke-linecap="round"/>
<path d="M7.11719 34.2097L7.11719 37.5611" stroke="#424E60" stroke-width="2.51351" stroke-linecap="round"/>
<path d="M7.11716 44.7876C5.37717 44.7876 3.9707 46.1797 3.9707 47.9019C3.9707 49.6242 5.37717 51.0163 7.11716 51.0163C8.85715 51.0163 10.2636 49.6242 10.2636 47.9019C10.2636 46.1797 8.85715 44.7876 7.11716 44.7876Z" fill="white"/>
<path d="M7.11713 40.561C3.20316 40.561 0.0375977 43.6943 0.0375977 47.5683C0.0375977 49.3101 0.543278 50.9418 1.46362 52.4134C2.42441 53.955 3.68861 55.2763 4.65952 56.818C5.13486 57.5687 5.47872 58.2695 5.84281 59.0803C6.10577 59.6309 6.31815 60.5819 7.11713 60.5819C7.91611 60.5819 8.12849 59.6309 8.38133 59.0803C8.75554 58.2695 9.08928 57.5687 9.56462 56.818C10.5355 55.2864 11.7997 53.965 12.7605 52.4134C13.691 50.9418 14.1967 49.3101 14.1967 47.5683C14.1967 43.6943 11.0311 40.561 7.11713 40.561ZM7.11713 50.3212C5.72145 50.3212 4.58873 49.2 4.58873 47.8186C4.58873 46.4372 5.72145 45.316 7.11713 45.316C8.51281 45.316 9.64553 46.4372 9.64553 47.8186C9.64553 49.2 8.51281 50.3212 7.11713 50.3212Z" fill="#DD5E5E"/>
</svg>
