<svg width="563" height="36" viewBox="0 0 563 36" fill="none" xmlns="http://www.w3.org/2000/svg">
<rect x="15.9849" y="21" width="4.99998" height="534.882" transform="rotate(-90 15.9849 21)" fill="#2E7BEA"/>
<circle cx="19.7961" cy="18.5" r="7.5" fill="#2E7BEA"/>
<circle cx="19.7962" cy="18.5" r="3.08824" fill="white"/>
<circle cx="193.806" cy="18.5" r="7.5" fill="#2E7BEA"/>
<circle cx="193.806" cy="18.5" r="3.08824" fill="white"/>
<circle cx="368.816" cy="18.5" r="8.5" fill="#2E7BEA"/>
<circle cx="368.816" cy="18.5" r="3.5" fill="white"/>
<circle cx="544.826" cy="18.5" r="8.5" fill="#2E7BEA"/>
<circle cx="544.826" cy="18.5" r="3.5" fill="white"/>
<circle cx="20" cy="18" r="18" fill="#2E7BEA"/>
<path d="M20.209 8.03196L20.2091 8.03196C25.2915 8.17943 29.5352 12.6245 29.6759 17.9394C29.8275 23.7069 25.3996 28.436 19.9274 28.436C17.6631 28.436 15.5939 27.6308 13.9474 26.2703C13.4169 25.8447 13.3851 25.0098 13.8566 24.5163C14.2627 24.0912 14.8956 24.0558 15.3467 24.4217L15.3471 24.422C16.6101 25.464 18.2046 26.08 19.9274 26.08C24.1 26.08 27.4743 22.5067 27.4207 18.1218C27.3672 13.9507 24.0141 10.444 20.0345 10.3879C15.8563 10.3322 12.4601 13.8336 12.4343 18.184H14.3131C14.8461 18.184 15.0987 18.8488 14.7372 19.2273L20.209 8.03196ZM20.209 8.03196C14.7096 7.87363 10.2052 12.4848 10.179 18.184H8.29998C7.76692 18.184 7.51415 18.849 7.88688 19.2276C7.88699 19.2277 7.8871 19.2278 7.88722 19.2279L10.8931 22.3857L10.8932 22.3857C11.1284 22.632 11.4954 22.632 11.7306 22.3857L11.7307 22.3857L14.7372 19.2273L20.209 8.03196ZM19.3512 19.7315L19.3515 19.7316L22.7136 21.8184L22.7139 21.8186C23.1267 22.0706 23.6535 21.9259 23.8933 21.5075L23.8936 21.507C24.1323 21.0786 23.997 20.5301 23.5963 20.2785L23.5962 20.2783L20.5162 18.3641V14.5567C20.5162 14.0796 20.1292 13.672 19.658 13.672C19.1865 13.672 18.7998 14.0801 18.7998 14.568V18.719C18.7998 19.1306 19.0131 19.5191 19.3512 19.7315Z" fill="white" stroke="white" stroke-width="0.1"/>
</svg>
