<svg width="200" height="62" viewBox="0 0 200 62" fill="none" xmlns="http://www.w3.org/2000/svg">
<g clip-path="url(#clip0_133_4)">
<path d="M94.8153 32.1982L87.188 3.47754H95.3236L98.8438 19.8978C98.9346 20.3165 99.0132 20.7903 99.0788 21.32C99.1437 21.8497 99.2025 22.4613 99.2551 23.1541C99.5024 22.4345 99.7405 21.7839 99.9686 21.2021C100.197 20.6204 100.382 20.1595 100.526 19.8189L108.114 3.47754H116.641L101.464 32.1982H94.8153Z" fill="#E8F0FD"/>
<path d="M113.003 32.6294L116.113 12.8151H123.135L120.005 32.6294H113.003ZM116.641 6.91021C116.641 5.88983 117.003 5.01412 117.726 4.28156C118.45 3.549 119.327 3.18311 120.357 3.18311C121.439 3.18311 122.339 3.53599 123.056 4.24252C123.773 4.94906 124.132 5.83854 124.132 6.91021C124.132 7.98187 123.766 8.86523 123.037 9.59779C122.307 10.3304 121.414 10.6962 120.358 10.6962C119.301 10.6962 118.451 10.3265 117.727 9.58784C117.004 8.84916 116.642 7.95661 116.642 6.91021H116.641Z" fill="#E8F0FD"/>
<path d="M143.175 26.0375C143.175 25.5147 143.22 24.8572 143.311 24.0657C143.402 23.2742 143.585 22.0548 143.859 20.4067L145.072 12.8147H140.117L139.668 15.6791C138.794 14.4888 137.817 13.6093 136.735 13.0405C135.652 12.4718 134.427 12.187 133.058 12.187C130.111 12.187 127.654 13.3184 125.685 15.5811C123.716 17.8439 122.731 20.6884 122.731 24.1147C122.731 26.8482 123.458 29.0719 124.912 30.785C126.366 32.4981 128.227 33.3547 130.496 33.3547C131.839 33.3547 133.094 33.0699 134.261 32.5012C135.427 31.9325 136.487 31.092 137.439 29.9805L137.106 32.629H143.6L144.08 29.5863C143.482 28.5705 143.176 27.3901 143.176 26.0375H143.175ZM137.408 26.0276C136.489 27.1069 135.338 27.6458 133.957 27.6458C132.692 27.6458 131.675 27.26 130.906 26.4884C130.137 25.7168 129.752 24.6964 129.752 23.428C129.752 21.819 130.211 20.4855 131.131 19.4261C132.051 18.3667 133.214 17.837 134.622 17.837C135.861 17.837 136.865 18.2197 137.634 18.9844C138.404 19.7499 138.788 20.7466 138.788 21.9759C138.788 23.598 138.329 24.9483 137.409 26.0268L137.408 26.0276Z" fill="#E8F0FD"/>
<path d="M146.969 12.8159H153.892L152.601 21.0165C152.445 22.1019 152.32 23.0075 152.23 23.7339C152.138 24.4596 152.093 24.9342 152.093 25.1561C152.093 26.0977 152.318 26.8172 152.768 27.314C153.217 27.8108 153.873 28.0596 154.733 28.0596C156.741 28.0596 158.097 25.7777 158.801 21.2132C158.84 20.9652 158.873 20.7753 158.899 20.6444L160.132 12.8167H167.074L165.666 21.7819L165.608 22.1938C164.916 26.4444 163.841 29.2828 162.38 30.7081C161.455 31.5976 160.323 32.2674 158.987 32.719C157.651 33.1699 156.141 33.3957 154.459 33.3957C151.552 33.3957 149.26 32.7351 147.585 31.4147C145.909 30.0935 145.072 28.3023 145.072 26.0395C145.072 25.5167 145.117 24.8591 145.209 24.0676C145.3 23.2761 145.483 22.0567 145.757 20.4087L146.969 12.8167L146.969 12.8159Z" fill="#E8F0FD"/>
<path d="M165.751 31.6288L160.138 12.8149H167.355L169.076 21.3684C169.102 21.4862 169.14 21.6562 169.193 21.8782C169.44 23.0294 169.578 24.01 169.604 24.8207C169.747 24.3109 169.933 23.7643 170.161 23.1825C170.389 22.6008 170.666 21.9693 170.992 21.2895L175.079 12.8149H182.57L167.237 41.3787H159.942L165.751 31.6288Z" fill="#E8F0FD"/>
<path d="M80.22 22.4352C80.0308 22.5646 78.0894 23.4885 76.8463 24.0182C70.9978 26.5114 65.0859 24.6268 65.0859 24.6268C63.6444 24.1675 62.3105 23.3553 59.6419 21.7318C56.9977 20.1227 54.9083 18.5298 51.3651 17.7674C51.3125 17.7559 51.0095 17.6847 50.6425 17.6273C48.9453 17.3632 45.8448 17.3486 38.1015 19.2884C33.8822 20.3455 30.697 21.3781 28.2504 22.1765C23.046 23.8751 17.4233 25.987 17.4233 25.987C17.4233 25.987 17.4241 25.987 17.4249 25.987C17.6248 25.9273 27.6079 23.0545 31.3662 22.1972C33.0634 21.8098 35.719 21.1975 39.2553 20.5675C45.6319 19.4315 49.7809 19.0434 53.9643 20.9135C54.9907 21.372 56.1392 22.0923 58.4354 23.5314C61.8755 25.6877 62.4257 26.4134 64.4243 27.3465C65.6827 27.9344 67.8797 28.9632 70.6834 29.1974C75.3689 29.5886 78.9205 27.7951 80.3269 26.9814C80.2712 25.4596 80.2506 23.947 80.22 22.4352Z" fill="#E8F0FD"/>
<path d="M80.3273 30.1928C77.8342 31.2576 73.0449 32.8291 68.0816 31.6388C65.9029 31.116 63.9394 30.1499 63.4442 29.9004C60.6138 28.4743 60.0674 27.4577 57.2828 25.7232C55.6474 24.7043 53.487 23.3586 50.5254 22.6735C47.9392 22.0757 45.9162 22.2533 41.9877 22.5977C39.4175 22.8228 37.3044 23.1757 35.8446 23.4581C20.8028 26.8706 17.668 27.7731 17.668 27.7731C17.668 27.7731 22.0299 27.0046 29.848 25.7232C31.7764 25.407 37.5486 24.48 44.5754 24.2389C47.0616 24.154 49.7081 24.154 52.6095 25.4185C53.922 25.9911 54.9247 26.6639 56.6356 27.8137C59.7995 29.9387 59.782 30.4431 62.24 32.0759C64.1439 33.3404 66.4119 34.817 69.6147 35.46C71.6446 35.8673 73.3753 35.8053 74.5162 35.6881C77.0154 35.5948 79.117 34.3784 79.8572 32.5221C80.0297 32.0896 80.2899 31.2178 80.3273 30.1936V30.1928Z" fill="#E8F0FD"/>
<path d="M61.2574 35.4645C59.748 33.9465 58.3957 32.7417 57.3426 31.8522C54.7824 29.6882 53.4691 28.9426 52.9418 28.6556C52.9418 28.6556 51.775 28.0202 50.5242 27.5395C47.1841 26.2558 42.8374 26.4364 36.5234 27.0725C33.3084 27.3963 30.3085 27.7041 26.0481 28.3968C22.6431 28.9503 19.7997 29.5282 17.7324 29.9798C21.9089 29.5221 25.4032 29.2143 27.965 29.0107C29.5141 28.8875 33.9662 28.5438 39.6743 28.4274C42.9183 28.3608 44.8566 28.4029 47.2878 28.8431C49.7352 29.2863 51.6033 29.9377 52.5495 30.2967C54.6778 31.1043 57.8913 32.6123 61.2574 35.4645Z" fill="#E8F0FD"/>
<path d="M38.194 9.15855C40.3353 7.54875 44.1814 4.62464 49.9468 2.32438C55.5412 0.0930225 58.9912 -0.0126133 59.9054 0.023364C63.1937 0.151964 76.6573 -1.87731 79.0886 13.903C79.1245 14.1349 80.273 19.1319 79.3816 19.6318C74.7457 22.2329 69.8961 22.5789 64.8611 21.0066C64.333 20.842 64.1033 20.5404 64.0041 20.0069C63.5859 17.7633 63.1479 15.5227 62.5046 13.3296C61.5972 10.2348 60.4999 7.22725 58.4967 4.63765C58.4967 4.63765 59.2369 6.31481 60 8.19635C61.3386 11.494 61.9468 14.9708 62.4664 18.4652C62.5336 18.9153 62.8312 19.5614 62.455 19.8117C62.0307 20.0934 61.5232 19.5851 61.115 19.3317C59.2209 18.1567 57.3047 17.0322 55.2733 16.1045C53.0908 15.1078 50.8526 14.4717 48.4213 14.7542C45.758 15.0642 43.1261 15.5495 40.5269 16.1963C33.3155 17.9906 17.9273 23.5702 17.2412 23.7967C26.1017 17.7724 33.7466 12.5021 38.194 9.15931V9.15855Z" fill="#E8F0FD"/>
<path d="M48.8533 60.537H45.7953L45.2893 62H43.6723L46.4333 54.311H48.2263L50.9873 62H49.3593L48.8533 60.537ZM48.4353 59.305L47.3243 56.093L46.2133 59.305H48.4353ZM56.0233 54.322C56.83 54.322 57.5377 54.4797 58.1463 54.795C58.7623 55.1103 59.2353 55.5613 59.5653 56.148C59.9027 56.7273 60.0713 57.402 60.0713 58.172C60.0713 58.942 59.9027 59.6167 59.5653 60.196C59.2353 60.768 58.7623 61.2117 58.1463 61.527C57.5377 61.8423 56.83 62 56.0233 62H53.3393V54.322H56.0233ZM55.9683 60.691C56.775 60.691 57.3983 60.471 57.8383 60.031C58.2783 59.591 58.4983 58.9713 58.4983 58.172C58.4983 57.3727 58.2783 56.7493 57.8383 56.302C57.3983 55.8473 56.775 55.62 55.9683 55.62H54.8793V60.691H55.9683ZM70.9151 54.322V62H69.3751V57.006L67.3181 62H66.1521L64.0841 57.006V62H62.5441V54.322H64.2931L66.7351 60.031L69.1771 54.322H70.9151ZM75.2977 54.322V62H73.7577V54.322H75.2977ZM84.7062 62H83.1662L79.6792 56.731V62H78.1392V54.311H79.6792L83.1662 59.591V54.311H84.7062V62ZM89.088 54.322V62H87.548V54.322H89.088ZM94.5806 62.077C94.0452 62.077 93.5612 61.9853 93.1286 61.802C92.7032 61.6187 92.3659 61.3547 92.1166 61.01C91.8672 60.6653 91.7389 60.2583 91.7316 59.789H93.3816C93.4036 60.1043 93.5136 60.3537 93.7116 60.537C93.9169 60.7203 94.1956 60.812 94.5476 60.812C94.9069 60.812 95.1892 60.7277 95.3946 60.559C95.5999 60.383 95.7026 60.1557 95.7026 59.877C95.7026 59.6497 95.6329 59.4627 95.4936 59.316C95.3542 59.1693 95.1782 59.0557 94.9656 58.975C94.7602 58.887 94.4742 58.7917 94.1076 58.689C93.6089 58.5423 93.2019 58.3993 92.8866 58.26C92.5786 58.1133 92.3109 57.897 92.0836 57.611C91.8636 57.3177 91.7536 56.929 91.7536 56.445C91.7536 55.9903 91.8672 55.5943 92.0946 55.257C92.3219 54.9197 92.6409 54.663 93.0516 54.487C93.4622 54.3037 93.9316 54.212 94.4596 54.212C95.2516 54.212 95.8932 54.4063 96.3846 54.795C96.8832 55.1763 97.1582 55.7117 97.2096 56.401H95.5156C95.5009 56.137 95.3872 55.9207 95.1746 55.752C94.9692 55.576 94.6942 55.488 94.3496 55.488C94.0489 55.488 93.8069 55.565 93.6236 55.719C93.4476 55.873 93.3596 56.0967 93.3596 56.39C93.3596 56.5953 93.4256 56.7677 93.5576 56.907C93.6969 57.039 93.8656 57.149 94.0636 57.237C94.2689 57.3177 94.5549 57.413 94.9216 57.523C95.4202 57.6697 95.8272 57.8163 96.1426 57.963C96.4579 58.1097 96.7292 58.3297 96.9566 58.623C97.1839 58.9163 97.2976 59.3013 97.2976 59.778C97.2976 60.1887 97.1912 60.57 96.9786 60.922C96.7659 61.274 96.4542 61.5563 96.0436 61.769C95.6329 61.9743 95.1452 62.077 94.5806 62.077ZM105.178 54.322V55.565H103.132V62H101.592V55.565H99.5457V54.322H105.178ZM111.581 62L109.887 59.008H109.161V62H107.621V54.322H110.503C111.097 54.322 111.603 54.4283 112.021 54.641C112.439 54.8463 112.751 55.1287 112.956 55.488C113.169 55.84 113.275 56.236 113.275 56.676C113.275 57.182 113.129 57.6403 112.835 58.051C112.542 58.4543 112.106 58.733 111.526 58.887L113.363 62H111.581ZM109.161 57.853H110.448C110.866 57.853 111.178 57.754 111.383 57.556C111.589 57.3507 111.691 57.0683 111.691 56.709C111.691 56.357 111.589 56.0857 111.383 55.895C111.178 55.697 110.866 55.598 110.448 55.598H109.161V57.853ZM120.696 60.537H117.638L117.132 62H115.515L118.276 54.311H120.069L122.83 62H121.202L120.696 60.537ZM120.278 59.305L119.167 56.093L118.056 59.305H120.278ZM124.808 58.15C124.808 57.3947 124.977 56.72 125.314 56.126C125.659 55.5247 126.125 55.059 126.711 54.729C127.305 54.3917 127.969 54.223 128.702 54.223C129.56 54.223 130.312 54.443 130.957 54.883C131.603 55.323 132.054 55.9317 132.31 56.709H130.539C130.363 56.3423 130.114 56.0673 129.791 55.884C129.476 55.7007 129.109 55.609 128.691 55.609C128.244 55.609 127.844 55.7153 127.492 55.928C127.148 56.1333 126.876 56.4267 126.678 56.808C126.488 57.1893 126.392 57.6367 126.392 58.15C126.392 58.656 126.488 59.1033 126.678 59.492C126.876 59.8733 127.148 60.1703 127.492 60.383C127.844 60.5883 128.244 60.691 128.691 60.691C129.109 60.691 129.476 60.5993 129.791 60.416C130.114 60.2253 130.363 59.9467 130.539 59.58H132.31C132.054 60.3647 131.603 60.977 130.957 61.417C130.319 61.8497 129.568 62.066 128.702 62.066C127.969 62.066 127.305 61.901 126.711 61.571C126.125 61.2337 125.659 60.768 125.314 60.174C124.977 59.58 124.808 58.9053 124.808 58.15ZM136.486 54.322V62H134.946V54.322H136.486ZM142.891 62.077C142.172 62.077 141.512 61.9083 140.911 61.571C140.31 61.2337 139.833 60.768 139.481 60.174C139.129 59.5727 138.953 58.8943 138.953 58.139C138.953 57.391 139.129 56.72 139.481 56.126C139.833 55.5247 140.31 55.0553 140.911 54.718C141.512 54.3807 142.172 54.212 142.891 54.212C143.617 54.212 144.277 54.3807 144.871 54.718C145.472 55.0553 145.945 55.5247 146.29 56.126C146.642 56.72 146.818 57.391 146.818 58.139C146.818 58.8943 146.642 59.5727 146.29 60.174C145.945 60.768 145.472 61.2337 144.871 61.571C144.27 61.9083 143.61 62.077 142.891 62.077ZM142.891 60.702C143.353 60.702 143.76 60.5993 144.112 60.394C144.464 60.1813 144.739 59.8807 144.937 59.492C145.135 59.1033 145.234 58.6523 145.234 58.139C145.234 57.6257 145.135 57.1783 144.937 56.797C144.739 56.4083 144.464 56.1113 144.112 55.906C143.76 55.7007 143.353 55.598 142.891 55.598C142.429 55.598 142.018 55.7007 141.659 55.906C141.307 56.1113 141.032 56.4083 140.834 56.797C140.636 57.1783 140.537 57.6257 140.537 58.139C140.537 58.6523 140.636 59.1033 140.834 59.492C141.032 59.8807 141.307 60.1813 141.659 60.394C142.018 60.5993 142.429 60.702 142.891 60.702ZM155.851 62H154.311L150.824 56.731V62H149.284V54.311H150.824L154.311 59.591V54.311H155.851V62Z" fill="#E8F0FD"/>
</g>
<defs>
<clipPath id="clip0_133_4">
<rect width="200" height="62" fill="white"/>
</clipPath>
</defs>
</svg>
